<svg xmlns="http://www.w3.org/2000/svg" viewBox="0 0 512 512">

  <g fill="none" strokeLinecap="round" strokeLinejoin="round" strokeMiterlimit="10">
    <path d="m1.5 23v-22h21" />
    <path d="m1.5 1 17 17" />
    <path d="m10.5 1-.0000048.0000015c-2.4852905.826637-3.8215346 3.5194616-2.976655 5.9986095l.0127845.0375137" />
    <path d="m15.5 1-.0000048.0000041c-3.0290737 2.4232588-4.3084154 6.427412-3.2455387 10.1580639l.237608.8339968" />
    <path d="m20.5 1-.1089058.1386071c-3.4072075 4.3364463-4.6566839 9.987381-3.3953781 15.356081l.0003166.0013447" />
    <path d="m1.5039674 20.0039673.1386071-.1089058c4.3364468-3.4072075 9.987381-4.6566839 15.356081-3.3953781l.0013445.0003166" />
    <path d="m1.5000001 10 .0000015-.0000048c.826637-2.4852905 3.5194614-3.8215351 5.9986095-2.976655l.0375137.0127845" />
    <path d="m1.5000001 15 .0000041-.0000048c2.4232588-3.0290737 6.4274116-4.3084154 10.1580639-3.2455397l.8339968.2376089" />
  </g>

  <style>
    g {
      stroke: #000;
    }

    @media (prefers-color-scheme: dark) {
      g {
        stroke: #FFF;
      }
    }
  </style>

</svg>